<?xml version="1.0" encoding="utf-8"?>
<!-- Generator: Adobe Illustrator 18.1.0, SVG Export Plug-In . SVG Version: 6.00 Build 0)  -->
<svg version="1.1" id="Layer_1" xmlns="http://www.w3.org/2000/svg" xmlns:xlink="http://www.w3.org/1999/xlink" x="0px" y="0px"
	 viewBox="0 0 293.7 210.1" enable-background="new 0 0 293.7 210.1" xml:space="preserve">
<linearGradient id="SVGID_1_" gradientUnits="userSpaceOnUse" x1="71.2844" y1="97.7228" x2="222.4088" y2="97.7228">
	<stop  offset="0" style="stop-color:#0098AD"/>
	<stop  offset="1" style="stop-color:#0080AB"/>
</linearGradient>
<path fill="url(#SVGID_1_)" d="M109,91.5c0,9.6-7.8,17.3-17.3,17.3c-9.6,0-17.3-7.7-17.3-17.3c0-9.5,7.7-17.3,17.3-17.3
	C101.2,74.2,109,81.9,109,91.5z M184.7,91.5c0,9.6,7.8,17.3,17.3,17.3c9.6,0,17.3-7.7,17.3-17.3c0-9.5-7.8-17.3-17.3-17.3
	C192.5,74.2,184.7,81.9,184.7,91.5z M137.3,150.9c-0.4-3.7,1-7.1,3.4-9.6c-14.6-2.8-20.6-9.9-25.9-16.4c-2.5-3.2-5-6.2-8.2-8.3
	c-0.1-0.1-0.2-0.1-0.3-0.1c-2.7-2.3-6.2-3.7-10-3.7H87c-8.7,0-15.7,7.1-15.7,15.7v43.6h40.8V144c6,5.2,14.4,10.2,27.3,12.3
	C138.4,154.7,137.5,152.9,137.3,150.9z M206.7,112.8h-9.4c-3.8,0-7.3,1.4-10,3.7c-0.1,0.1-0.2,0.1-0.3,0.1c-3.2,2.1-5.6,5.1-8.2,8.3
	c-5.7,7.1-12.2,15.2-30.4,17.2c-4.1,0.5-7.1,4.2-6.6,8.3c0.4,3.8,3.7,6.7,7.4,6.7c0.3,0,0.6,0,0.8,0c15.4-1.7,24.9-7.2,31.5-13v28.1
	h40.8v-43.6C222.4,119.9,215.3,112.8,206.7,112.8z M135.9,62.8V45.5c0-4.5,3.5-8.1,7.7-8.1h16.9v-4.1c0-5.5-4.3-10-9.6-10h-44.4
	c-5.3,0-9.6,4.5-9.6,10v21.4c0,5.5,4.3,10,9.6,10h7.3c0,3.9,0,7.9,0,11.8c0,0.7,0.9,1.1,1.4,0.6c3.5-4.1,7-8.3,10.5-12.4h10.4
	C135.9,64.1,135.9,63.5,135.9,62.8z M140.3,48.4v19.3c0,4,3.1,7.3,7,7.3h18.4c2.5,3,5.1,6,7.6,9c0.3,0.4,1,0.1,1-0.4
	c0-2.9,0-5.8,0-8.6h11.5c3.9,0,7-3.3,7-7.3V48.4c0-4-3.1-7.3-7-7.3h-38.6C143.4,41.1,140.3,44.4,140.3,48.4z"/>
</svg>
