<?xml version="1.0" encoding="utf-8"?>
<!-- Generator: Adobe Illustrator 18.1.0, SVG Export Plug-In . SVG Version: 6.00 Build 0)  -->
<svg version="1.1" id="Layer_1" xmlns="http://www.w3.org/2000/svg" xmlns:xlink="http://www.w3.org/1999/xlink" x="0px" y="0px"
	 viewBox="0 0 293.7 210.1" enable-background="new 0 0 293.7 210.1" xml:space="preserve">
<linearGradient id="Your_Icon_1_" gradientUnits="userSpaceOnUse" x1="25.8121" y1="103.7752" x2="254.0953" y2="103.7752">
	<stop  offset="0" style="stop-color:#53A0CA"/>
	<stop  offset="1" style="stop-color:#0080AB"/>
</linearGradient>
<path id="Your_Icon_4_" fill="url(#Your_Icon_1_)" d="M69.3,58.8c9.1,2.3,14.9-0.8,14.9-0.8s50-22.1,57.5-26.2
	c7.6-4.1,16.3,0,16.3,0s32.7,18,36.8,20.3c4.1,2.3,8.7,11.6,3.9,21.1c-4.8,9.5-19.2,3.1-19.2,3.1l-32-17.8
	c-21.1,6.6-96.3,64.9-96.3,64.9l-24.8-5.4c-3.9-45.3,11.4-65.9,11.4-65.9S60.2,56.5,69.3,58.8z M243,53.4l-21.9,5.4
	c0,0-9.9,1.4-13.4,0c0,0,3.3,11.9-2.1,18c-5.4,6-9.5,9.3-18.2,9.3s-13-3.7-16.3-5.8c-3.3-2.1-23.1-13.4-23.1-13.4
	s-27.3,11.2-90.5,61.8c0,0-7.8,5-2.7,13c0,0,4.6,6.6,14,0c9.3-6.6,29.2-20.2,29.2-20.2s2.1-1.4,3.5,0c1.4,1.4,0.6,2.1-0.4,3.1
	s-27.7,20-27.7,20s-3.5,4.1,0.6,8.7c4.1,4.7,6.4,5,11.8,1.4c5.4-3.7,29.1-22.1,29.1-22.1s3.1-1.9,4.6,0.2c1.6,2.1,1.2,2.7,0,3.9
	c-1.2,1.2-26.5,19.6-26.5,19.6s-4.1,4.1-0.4,8.1c3.7,4.1,7.9,4.6,13,1c5-3.7,18-13.6,18-13.6s2.5-2.5,5-0.6c2.5,1.9-1,4.8-1,4.8
	l-14.5,10.5c0,0-3.9,3.5,1.9,8c5.8,4.5,6,3.3,11,0c5-3.3,12-8.7,12-8.7s-10.5-20.9,3.1-30c0,0,5.4-3.9,12-4.1c0,0,0-10.9,11.1-14.1
	c11-3.3,14.9,2.7,14.9,2.7s3.5-5.2,10.5-4.8c7,0.4,11,3.1,11,3.1s3.4-4.8,11.3-4.5c7.9,0.4,14.9,10.5,14.9,10.5l26.6-5.2
	C253.5,119.3,257.8,78,243,53.4z M220.6,134.2c0,0-0.4-8.7-4.3-10.7c-3.9-1.9-12.4-3.1-14.3,5.3l-1.2,0.3c0,0-2.3-5.6-10.8-5.6
	c0,0-7.6-0.6-7.4,8.3l-2.1,0.2c0,0-3.9-10.1-12.6-6.4c-8.7,3.7-8.3,9.9-5.2,16.9c0,0-1.5,1.2-2,1.2c-0.5,0-4.6-7-10.8-3.9
	c0,0-8.5,1-4.8,16.5c3.7,15.5,3.5,13.2,3.5,13.2s2.1,9.5,10.5,6.8c8.3-2.7,7.2-9.5,6.8-11.4c0,0,9.1,6.8,14,4.9
	c4.8-1.9,7.2-6,6.4-14.2c0,0,3.9,7.6,10.9,5.4c7-2.1,6.4-9.1,6.8-10.1c0,0,2.5,5.4,8.3,3.7C217.9,152.8,219.2,145.5,220.6,134.2z"/>
</svg>
