<?xml version="1.0" encoding="utf-8"?>
<!-- Generator: Adobe Illustrator 18.1.0, SVG Export Plug-In . SVG Version: 6.00 Build 0)  -->
<svg version="1.1" id="Layer_1" xmlns="http://www.w3.org/2000/svg" xmlns:xlink="http://www.w3.org/1999/xlink" x="0px" y="0px"
	 viewBox="0 0 288.3 131.2" enable-background="new 0 0 288.3 131.2" xml:space="preserve">
<g>
	<path fill="#52A1CB" d="M110.4,49.5h3.5l-0.1,2.5c1-1.8,2.4-2.8,4.3-2.8c2.1,0,3.5,1,4.2,2.7c1.1-1.7,2.8-2.7,4.9-2.7
		c3.4,0,5.4,2.3,5.4,5.9V64h-3.5v-8.4c0-2-0.7-3.1-2.7-3.1c-2,0-3.2,1.2-3.2,3.6V64h-3.5v-8.4c0-2-0.7-3.1-2.7-3.1
		c-2.1,0-3.3,1.2-3.3,3.6V64h-3.5V49.5z"/>
	<path fill="#52A1CB" d="M143.7,61.3c1.9,0,3.3-0.8,4.1-1.5l2,2.1c-1.3,1.3-3.2,2.3-6.1,2.3c-4.9,0-8.1-3.2-8.1-7.5
		c0-4.3,3.4-7.5,7.7-7.5c4.9,0,7.7,3.6,7.5,8.7h-11.6C139.5,60,141,61.3,143.7,61.3z M147.2,55.5c-0.3-2-1.5-3.4-3.9-3.4
		c-2.2,0-3.8,1.2-4.2,3.4H147.2z"/>
	<path fill="#52A1CB" d="M161.1,61.3c1.9,0,3.3-0.8,4.1-1.5l2,2.1c-1.3,1.3-3.2,2.3-6.1,2.3c-4.9,0-8.1-3.2-8.1-7.5
		c0-4.3,3.4-7.5,7.7-7.5c4.9,0,7.7,3.6,7.4,8.7h-11.6C156.9,60,158.4,61.3,161.1,61.3z M164.6,55.5c-0.3-2-1.5-3.4-3.9-3.4
		c-2.2,0-3.8,1.2-4.2,3.4H164.6z"/>
	<path fill="#52A1CB" d="M171.9,59.1v-6.6h-2.2v-2.9h2.2v-4.1h3.5v4.1h3.8v2.9h-3.8v6.7c0,1.7,0.5,2.2,1.4,2.2
		c0.9,0,1.4-0.4,1.8-0.8l1.4,2.4c-0.7,0.7-1.8,1.4-3.7,1.4C173.7,64.3,171.9,62.9,171.9,59.1z"/>
	<path fill="#52A1CB" d="M181.7,46.5c0-1.2,1-2.2,2.2-2.2c1.2,0,2.2,0.9,2.2,2.2c0,1.3-1,2.2-2.2,2.2
		C182.7,48.7,181.7,47.8,181.7,46.5z"/>
	<path fill="#52A1CB" d="M231,67.2c0-1.2,1-2.2,2.2-2.2c1.2,0,2.2,0.9,2.2,2.2c0,1.3-1,2.2-2.2,2.2C232,69.3,231,68.5,231,67.2z"/>
	<path fill="#52A1CB" d="M197.8,67.2c0-1.2,1-2.2,2.2-2.2c1.2,0,2.2,0.9,2.2,2.2c0,1.3-1,2.2-2.2,2.2
		C198.8,69.3,197.8,68.5,197.8,67.2z"/>
	<path fill="#52A1CB" d="M172.9,67.2c0-1.2,1-2.2,2.2-2.2c1.2,0,2.2,0.9,2.2,2.2c0,1.3-1,2.2-2.2,2.2
		C173.9,69.3,172.9,68.5,172.9,67.2z"/>
	<rect x="182.1" y="49.5" fill="#52A1CB" width="3.5" height="14.4"/>
	<path fill="#52A1CB" d="M189.2,49.5h3.5l-0.1,2.7c0.9-1.9,2.7-3,4.9-3c3.2,0,5.4,2.3,5.4,6.2V64h-3.5v-8.3c0-2.1-1-3.3-3-3.3
		c-2.3,0-3.7,1.4-3.7,3.7V64h-3.5V49.5z"/>
	<path fill="#52A1CB" d="M110.6,70.4h3.5l-0.1,2.7c0.9-1.8,2.6-3,5.1-3c3.7,0,6.7,3.1,6.7,7.5c0,4.4-3,7.6-6.8,7.6
		c-2.4,0-4.1-1.2-4.9-2.8v8.1h-3.5V70.4z M122.2,77.6c0-2.6-1.6-4.4-4.1-4.4c-2.5,0-4.2,1.8-4.2,4.4c0,2.7,1.6,4.5,4.2,4.5
		C120.6,82.1,122.2,80.3,122.2,77.6z"/>
	<path fill="#52A1CB" d="M128.1,77.7c0-4.3,3.4-7.5,7.8-7.5c4.4,0,7.8,3.2,7.8,7.5c0,4.3-3.4,7.5-7.8,7.5
		C131.5,85.2,128.1,81.9,128.1,77.7z M140.1,77.7c0-2.6-1.6-4.5-4.2-4.5c-2.6,0-4.2,1.9-4.2,4.5c0,2.6,1.6,4.5,4.2,4.5
		C138.4,82.2,140.1,80.3,140.1,77.7z"/>
	<path fill="#52A1CB" d="M145.1,82.2l2.4-1.6c0.9,1.3,2.2,1.9,3.9,1.9c1.8,0,2.5-0.6,2.5-1.5c0-1.2-1.1-1.3-3.5-2
		c-2.1-0.6-4.3-1.6-4.3-4.4c0-2.9,2.3-4.3,5.2-4.3c2.3,0,3.9,1,5,2.2l-2,2c-0.7-0.8-1.7-1.4-3-1.4s-2,0.5-2,1.3
		c0,1.1,0.9,1.3,3.2,1.9c2.3,0.6,4.7,1.5,4.7,4.5c0,2.5-1.5,4.5-5.6,4.5C148.3,85.2,146.1,83.7,145.1,82.2z"/>
	<path fill="#52A1CB" d="M158.6,82.2l2.4-1.6c0.9,1.3,2.2,1.9,3.9,1.9c1.8,0,2.5-0.6,2.5-1.5c0-1.2-1.1-1.3-3.5-2
		c-2.1-0.6-4.3-1.6-4.3-4.4c0-2.9,2.3-4.3,5.2-4.3c2.3,0,3.9,1,5,2.2l-2,2c-0.7-0.8-1.7-1.4-3-1.4s-2,0.5-2,1.3
		c0,1.1,0.9,1.3,3.2,1.9c2.3,0.6,4.7,1.5,4.7,4.5c0,2.5-1.5,4.5-5.6,4.5C161.7,85.2,159.5,83.7,158.6,82.2z"/>
	<rect x="173.4" y="70.4" fill="#52A1CB" width="3.5" height="14.4"/>
	<path fill="#52A1CB" d="M183.8,82.3l0.1,2.6h-3.5V65.1h3.5v7.8c1-1.6,2.6-2.8,5-2.8c3.7,0,6.7,3.1,6.7,7.5c0,4.4-3,7.6-6.8,7.6
		C186.4,85.2,184.7,84,183.8,82.3z M192,77.6c0-2.6-1.6-4.4-4.1-4.4c-2.5,0-4.2,1.8-4.2,4.4c0,2.7,1.6,4.5,4.2,4.5
		C190.4,82.1,192,80.3,192,77.6z"/>
	<rect x="198.2" y="70.4" fill="#52A1CB" width="3.5" height="14.4"/>
	<path fill="#52A1CB" d="M205.5,65.1h3.5v19.8h-3.5V65.1z"/>
	<path fill="#52A1CB" d="M221.1,80v-6.6h-2.2v-2.9h2.2v-4.1h3.5v4.1h3.8v2.9h-3.8v6.7c0,1.7,0.5,2.2,1.4,2.2c0.9,0,1.4-0.4,1.8-0.8
		l1.4,2.4c-0.7,0.7-1.8,1.4-3.7,1.4C223,85.2,221.1,83.8,221.1,80z"/>
	<rect x="231.4" y="70.4" fill="#52A1CB" width="3.5" height="14.4"/>
	<path fill="#52A1CB" d="M246.1,82.3c1.9,0,3.3-0.8,4.1-1.5l2,2.1c-1.3,1.3-3.2,2.3-6.1,2.3c-4.9,0-8.1-3.2-8.1-7.5
		c0-4.3,3.4-7.5,7.7-7.5c4.9,0,7.7,3.6,7.5,8.7h-11.6C241.9,80.9,243.4,82.3,246.1,82.3z M249.6,76.4c-0.3-2-1.5-3.4-3.9-3.4
		c-2.2,0-3.8,1.2-4.2,3.4H249.6z"/>
	<path fill="#52A1CB" d="M254.3,82.2l2.4-1.6c0.9,1.3,2.2,1.9,3.9,1.9c1.8,0,2.5-0.6,2.5-1.5c0-1.2-1.1-1.3-3.5-2
		c-2.1-0.6-4.3-1.6-4.3-4.4c0-2.9,2.3-4.3,5.2-4.3c2.3,0,3.9,1,5,2.2l-2,2c-0.7-0.8-1.7-1.4-3-1.4c-1.3,0-2,0.5-2,1.3
		c0,1.1,0.9,1.3,3.2,1.9c2.3,0.6,4.7,1.5,4.7,4.5c0,2.5-1.5,4.5-5.6,4.5C257.5,85.2,255.3,83.7,254.3,82.2z"/>
	<path fill="#52A1CB" d="M217.1,49.5l0.1,2.7c-0.9-1.8-2.6-3-5.1-3c-3.7,0-6.7,3.1-6.7,7.5s3,7.6,6.8,7.6c2.4,0,4.1-1.2,5-2.8v1.8
		c0,3.2-1.6,4.7-4.2,4.7c-0.1,0-0.2,0-0.2,0v2.9c0.1,0,0.3,0,0.4,0c4.2,0,7.5-2.1,7.5-7.4V49.5H217.1z M213.1,61.2
		c-2.5,0-4.1-1.8-4.1-4.5c0-2.6,1.6-4.4,4.1-4.4c2.5,0,4.2,1.8,4.2,4.4C217.2,59.4,215.6,61.2,213.1,61.2z"/>
	<rect x="212.7" y="72.1" fill="#52A1CB" width="3.5" height="12.7"/>
</g>
<linearGradient id="SVGID_1_" gradientUnits="userSpaceOnUse" x1="55.2478" y1="70.8063" x2="30.2478" y2="86.8063">
	<stop  offset="0" style="stop-color:#E26E61"/>
	<stop  offset="1" style="stop-color:#D45252"/>
</linearGradient>
<path fill="url(#SVGID_1_)" d="M53,71.4l-11.8-6.8V50.7L53,57.6V71.4z M53.5,86l12.1,7V79.1l-12.1-7V86z M40.8,64.9l-11.6-6.6v13.9
	l11.6,6.6V64.9z M65.6,64.9l-12.1-7.1v13.8l12.1,7V64.9z M40.8,64.3V50.5l-11.6-6.7v14L40.8,64.3z M65.6,93.5l-12.1-7v14.1l12.1,7.2
	V93.5z M40.8,79.2l-11.6-6.6v13.8l11.6,6.8V79.2z M53,86.3l-11.8-6.8v14l11.8,7V86.3z M41.3,79L53,85.8V71.9l-11.8-6.8V79z"/>
<linearGradient id="SVGID_2_" gradientUnits="userSpaceOnUse" x1="82.7668" y1="75.2917" x2="134.4335" y2="94.6251">
	<stop  offset="0" style="stop-color:#53A0CA"/>
	<stop  offset="1" style="stop-color:#0080AB"/>
</linearGradient>
<path fill="url(#SVGID_2_)" d="M90.8,65l11.7-6.7v13.9l-11.7,6.7V65z M78.1,57.9l-12.1,7v13.8l12.1-6.9V57.9z M66.1,93.1l12.1-6.9
	V72.3l-12.1,6.9V93.1z M66.1,107.9l12.1-7.1V86.6l-12.1,6.9V107.9z M102.4,57.8V43.8l-11.7,6.8v13.9L102.4,57.8z M90.8,79.4v13.9
	l11.7-6.9V72.7L90.8,79.4z M78.6,100.5l11.8-7V79.6l-11.8,6.8V100.5z M78.6,71.5l11.8-6.8V50.8l-11.8,6.8V71.5z M90.3,65.2L78.6,72
	v13.9l11.8-6.8V65.2z"/>
<linearGradient id="SVGID_3_" gradientUnits="userSpaceOnUse" x1="70.8683" y1="59.512" x2="53.8683" y2="4.1787">
	<stop  offset="0" style="stop-color:#86C2D3"/>
	<stop  offset="0.4744" style="stop-color:#75C3D5"/>
	<stop  offset="1" style="stop-color:#1DC5DD"/>
</linearGradient>
<path fill="url(#SVGID_3_)" d="M90.6,50.2L78,42.6l11.4-7l13,7.7L90.6,50.2z M90.1,50.4l-12.6-7.6l-11.5,7l12.2,7.5L90.1,50.4z
	 M77.9,57.5l-12.2-7.5l-12,7.3l12.2,7.1L77.9,57.5z M41.4,50.3l11.8,6.9l12-7.3l-11.5-7L41.4,50.3z M66.1,35.4l11.5,6.9l11.4-7
	l-11.5-6.8L66.1,35.4z M41,50.1l12.4-7.5l-11.2-6.8l-12.7,7.6L41,50.1z M65.7,35.1L77,28.3l-11.1-6.6l-11.3,6.7L65.7,35.1z
	 M42.6,35.5l11.2,6.8l11.5-6.9l-11.1-6.7L42.6,35.5z M54.2,42.6l11.5,7l11.5-7l-11.5-6.9L54.2,42.6z"/>
</svg>
