<?xml version="1.0" encoding="utf-8"?>
<!-- Generator: Adobe Illustrator 18.1.0, SVG Export Plug-In . SVG Version: 6.00 Build 0)  -->
<svg version="1.1" id="Layer_1" xmlns="http://www.w3.org/2000/svg" xmlns:xlink="http://www.w3.org/1999/xlink" x="0px" y="0px"
	 viewBox="0 0 293.7 210.1" enable-background="new 0 0 293.7 210.1" xml:space="preserve">
<g>
	<linearGradient id="SVGID_1_" gradientUnits="userSpaceOnUse" x1="83.9596" y1="143.4057" x2="84.0236" y2="143.4057">
		<stop  offset="0" style="stop-color:#0098AD"/>
		<stop  offset="1" style="stop-color:#0080AB"/>
	</linearGradient>
	<path fill="url(#SVGID_1_)" d="M84,143.3c0,0.1-0.1,0.1-0.1,0.1L84,143.3L84,143.3z"/>
	<linearGradient id="SVGID_2_" gradientUnits="userSpaceOnUse" x1="59.3732" y1="115.1829" x2="235.3854" y2="115.1829">
		<stop  offset="0" style="stop-color:#0098AD"/>
		<stop  offset="1" style="stop-color:#0080AB"/>
	</linearGradient>
	<path fill="url(#SVGID_2_)" d="M218.4,98.6c-4.1,0-7.4,0.9-9.9,2.5c-0.1-8.2-1.4-17.5-11.3-17.5c-4,0-7,1.1-9.2,2.9
		c0.2-7.3,1.2-18.9-9.5-18.9c-9.3,0-12,7.3-13.1,13.9c-1.3-0.5-2.6-1-4.2-1.4c-0.2-0.7-0.4-1.3-0.5-2c-2.5-9.6-2.9-21.6-14.4-21.8
		c-11.5,0.2-11.9,12.1-14.4,21.8c-0.2,0.6-0.3,1.2-0.5,1.8c-1.1,0.2-2.1,0.5-3,0.8c-1.2-6.4-4-13.2-13-13.2
		c-10.7,0-9.7,11.6-9.5,18.9c-2.2-1.8-5.2-2.9-9.2-2.9c-9.7,0-11.1,8.9-11.3,16.9c-2.4-1.2-5.3-2-8.9-2c-19.4,0-17.7,18.4-16.1,35.7
		c1.3,13.4,9.5,20.3,15.7,23.2c5.3,2.5,9.9,4.4,13.9,5.9c0,0,0.1,0,0.1,0c13.1,6.3,36.2,10.5,55.8,10.5c18.8,0,44-3.5,57.5-10
		c4.3-1.6,9.4-3.7,15.3-6.4c6.3-2.9,14.5-9.8,15.7-23.2C236.1,117,237.8,98.6,218.4,98.6z M144.5,60.3c0-1,0.8-1.9,1.7-1.9
		c1,0,1.8,0.8,1.8,1.9c0,1-0.7,1.7-1.5,1.9l1.8,14.2l-1.6,2.4l-0.4,0.6l-0.4-0.6l-1.6-2.5l1.8-14.1C145.1,62,144.5,61.2,144.5,60.3z
		 M208.5,145.1c0,0.2-0.1,0.3-0.1,0.4c-1.1,2.7-6.5,5.7-14.6,8.2c-11.8,3.7-29.4,6.6-47.9,6.6c-17.3,0-33.4-2.9-44.8-6.5
		c-9.3-2.9-15.6-6.4-16.9-9.3c-0.1-0.2-0.1-0.3-0.2-0.5c0-0.2,0-0.4,0-0.6v-0.1H84c0.1-0.3,0.2-0.5,0.5-0.8l12.4-16.9l7.1-9.7l0,0
		l8.8-12l5.2-7l6-8.1c0.8-1.1,2.3-2.3,5-3.3c0.4-0.1,0.7-0.3,1.1-0.4c3.3-0.9,7.3-1.4,7.3-1.4c2.4-0.3,5.2-0.4,8.5-0.4
		c3.5,0,6.5,0.2,9.2,0.5c0,0,3.8,0.7,7.4,1.6c0.9,0.3,1.6,0.6,2.3,1c1.3,0.7,2.3,1.5,3,2.4l3.5,4.8l9.4,12.8l4.8,6.5l12.1,16.5
		l3.7,5.1l2.4,3.3l3.5,4.7l0.2,0.3C208.5,143.9,208.6,144.6,208.5,145.1z"/>
	<linearGradient id="SVGID_3_" gradientUnits="userSpaceOnUse" x1="137.6328" y1="45.3671" x2="154.8101" y2="45.3671">
		<stop  offset="0" style="stop-color:#0098AD"/>
		<stop  offset="1" style="stop-color:#0080AB"/>
	</linearGradient>
	<ellipse fill="url(#SVGID_3_)" cx="146.2" cy="45.4" rx="8.6" ry="9.2"/>
	<linearGradient id="SVGID_4_" gradientUnits="userSpaceOnUse" x1="108.0558" y1="55.9851" x2="125.2331" y2="55.9851">
		<stop  offset="0" style="stop-color:#0098AD"/>
		<stop  offset="1" style="stop-color:#0080AB"/>
	</linearGradient>
	<ellipse fill="url(#SVGID_4_)" cx="116.6" cy="56" rx="8.6" ry="9.2"/>
	<linearGradient id="SVGID_5_" gradientUnits="userSpaceOnUse" x1="85.0103" y1="69.5412" x2="105.661" y2="69.5412">
		<stop  offset="0" style="stop-color:#0098AD"/>
		<stop  offset="1" style="stop-color:#0080AB"/>
	</linearGradient>
	<path fill="url(#SVGID_5_)" d="M105.7,69.5c0,6.1-4.6,11.1-10.3,11.1c-5.7,0-10.3-5-10.3-11.1c0-6.1,4.6-11.1,10.3-11.1
		C101,58.5,105.7,63.4,105.7,69.5z"/>
	<linearGradient id="SVGID_6_" gradientUnits="userSpaceOnUse" x1="57.946" y1="81.2238" x2="83.7759" y2="81.2238">
		<stop  offset="0" style="stop-color:#0098AD"/>
		<stop  offset="1" style="stop-color:#0080AB"/>
	</linearGradient>
	<ellipse fill="url(#SVGID_6_)" cx="70.9" cy="81.2" rx="12.9" ry="13.9"/>
	<linearGradient id="SVGID_7_" gradientUnits="userSpaceOnUse" x1="168.4601" y1="55.9851" x2="185.6374" y2="55.9851">
		<stop  offset="0" style="stop-color:#0098AD"/>
		<stop  offset="1" style="stop-color:#0080AB"/>
	</linearGradient>
	<ellipse fill="url(#SVGID_7_)" cx="177" cy="56" rx="8.6" ry="9.2"/>
	<linearGradient id="SVGID_8_" gradientUnits="userSpaceOnUse" x1="188.0302" y1="69.5432" x2="208.6829" y2="69.5432">
		<stop  offset="0" style="stop-color:#0098AD"/>
		<stop  offset="1" style="stop-color:#0080AB"/>
	</linearGradient>
	<ellipse fill="url(#SVGID_8_)" cx="198.4" cy="69.5" rx="10.3" ry="11.1"/>
	<linearGradient id="SVGID_9_" gradientUnits="userSpaceOnUse" x1="209.9173" y1="81.2238" x2="235.7472" y2="81.2238">
		<stop  offset="0" style="stop-color:#0098AD"/>
		<stop  offset="1" style="stop-color:#0080AB"/>
	</linearGradient>
	<ellipse fill="url(#SVGID_9_)" cx="222.8" cy="81.2" rx="12.9" ry="13.9"/>
</g>
</svg>
